<svg width="120" height="27" viewBox="0 0 120 27" fill="none" xmlns="http://www.w3.org/2000/svg">
<path fill-rule="evenodd" clip-rule="evenodd" d="M15.4978 2.49945H9.01304L3.83411 24.3392H6.35947L13.7226 18.8186L13.7232 18.8193L15.3465 17.587C15.7199 17.3036 15.8707 16.8133 15.7212 16.3689C15.5716 15.9246 15.1551 15.6253 14.6862 15.6253H12.4215L14.9676 4.68343H14.9896L15.4978 2.49945ZM17.232 4.68343L17.7401 2.49945H17.9086L17.9071 2.51129L17.9086 2.51139C18.1375 2.52646 18.3625 2.55562 18.5828 2.59803C21.1017 3.08292 23.0046 5.29894 23.0046 7.95939C23.0046 9.6046 22.2769 11.0799 21.1259 12.0809C20.539 12.5913 19.842 12.9784 19.0753 13.2019C19.7057 13.6758 20.2426 14.2673 20.6535 14.9439C21.2215 15.8792 21.5486 16.9771 21.5486 18.1513C21.5486 21.5688 18.7781 24.3392 15.3606 24.3392C15.2755 24.3392 15.1908 24.3375 15.1066 24.3341L15.1059 24.3392H9.96229L12.8394 22.1552H14.9548C15.0338 22.1498 15.1139 22.1486 15.1947 22.1519C15.2496 22.1541 15.3049 22.1552 15.3606 22.1552C17.572 22.1552 19.3646 20.3626 19.3646 18.1513C19.3646 16.8433 18.7397 15.6819 17.763 14.9476C17.102 14.4508 16.7783 13.6233 16.9268 12.8098C17.0752 11.9964 17.6703 11.3365 18.4641 11.1051C19.8277 10.7077 20.8206 9.44664 20.8206 7.95939C20.8206 6.22407 19.47 4.80239 17.7643 4.69059C17.7361 4.68874 17.708 4.68635 17.68 4.68343H17.232ZM10.7397 4.68343H12.7253L9.98269 16.4698C9.90719 16.7942 9.98392 17.1354 10.1911 17.3963C10.3982 17.6572 10.7131 17.8092 11.0463 17.8092H11.4416L6.78977 21.3404L10.7397 4.68343Z" fill="#0F1740"/>
<path d="M115.128 9.82007C116.136 9.82007 116.997 10.0123 117.713 10.3967C118.442 10.7812 119.006 11.338 119.403 12.0671C119.801 12.7962 120 13.6911 120 14.7516V16.1834H113C113.027 17.0186 113.272 17.6748 113.736 18.152C114.213 18.6293 114.87 18.8679 115.705 18.8679C116.407 18.8679 117.044 18.8016 117.614 18.6691C118.184 18.5232 118.774 18.3045 119.384 18.0128V20.2997C118.853 20.5648 118.29 20.757 117.693 20.8763C117.11 21.0089 116.401 21.0752 115.566 21.0752C114.479 21.0752 113.517 20.8763 112.682 20.4786C111.847 20.0677 111.191 19.4512 110.714 18.6293C110.236 17.8074 109.998 16.7733 109.998 15.5272C109.998 14.2545 110.21 13.2006 110.634 12.3654C111.071 11.517 111.675 10.8806 112.444 10.4564C113.212 10.0322 114.107 9.82007 115.128 9.82007ZM115.148 11.9279C114.578 11.9279 114.101 12.1135 113.716 12.4847C113.345 12.8559 113.126 13.4326 113.06 14.2147H117.216C117.216 13.7773 117.137 13.3862 116.977 13.0415C116.832 12.6968 116.606 12.4251 116.301 12.2262C115.996 12.0273 115.612 11.9279 115.148 11.9279Z" fill="#0F1740"/>
<path d="M107.003 18.7088C107.334 18.7088 107.653 18.6757 107.958 18.6094C108.262 18.5431 108.567 18.4636 108.872 18.3708V20.578C108.554 20.7106 108.156 20.8233 107.679 20.9161C107.215 21.0222 106.705 21.0752 106.148 21.0752C105.498 21.0752 104.915 20.9691 104.398 20.757C103.894 20.5449 103.49 20.1803 103.185 19.6633C102.893 19.133 102.748 18.4039 102.748 17.4759V12.2461H101.336V10.9933L102.966 9.99904L103.821 7.71222H105.71V10.0189H108.753V12.2461H105.71V17.4759C105.71 17.8869 105.83 18.1984 106.068 18.4105C106.307 18.6094 106.619 18.7088 107.003 18.7088Z" fill="#0F1740"/>
<path d="M99.7312 10.019V20.8764H96.7683V10.019H99.7312ZM98.2597 5.76349C98.6972 5.76349 99.075 5.86954 99.3932 6.08166C99.7113 6.28051 99.8704 6.65833 99.8704 7.21512C99.8704 7.75865 99.7113 8.13647 99.3932 8.34858C99.075 8.5607 98.6972 8.66675 98.2597 8.66675C97.809 8.66675 97.4245 8.5607 97.1064 8.34858C96.8014 8.13647 96.649 7.75865 96.649 7.21512C96.649 6.65833 96.8014 6.28051 97.1064 6.08166C97.4245 5.86954 97.809 5.76349 98.2597 5.76349Z" fill="#0F1740"/>
<path d="M94.201 9.82007C94.3469 9.82007 94.5192 9.8267 94.7181 9.83995C94.9169 9.85321 95.076 9.8731 95.1953 9.89961L94.9766 12.6836C94.8838 12.657 94.7446 12.6372 94.559 12.6239C94.3867 12.5974 94.2342 12.5841 94.1016 12.5841C93.7172 12.5841 93.346 12.6372 92.988 12.7432C92.6301 12.836 92.3053 12.9885 92.0137 13.2006C91.7353 13.4127 91.5099 13.6977 91.3376 14.0557C91.1785 14.4003 91.0989 14.8312 91.0989 15.3482V20.8763H88.136V10.0189H90.3831L90.8205 11.8484H90.9597C91.1718 11.4772 91.437 11.1391 91.7552 10.8342C92.0733 10.5293 92.4379 10.2841 92.8489 10.0985C93.2731 9.91287 93.7238 9.82007 94.201 9.82007Z" fill="#0F1740"/>
<path d="M79.5964 17.0782C79.5433 16.8529 79.4638 16.5214 79.3577 16.084C79.2649 15.6332 79.1589 15.156 79.0396 14.6522C78.9203 14.1352 78.8076 13.6646 78.7015 13.2403C78.5955 12.8029 78.5226 12.4847 78.4828 12.2859H78.4032C78.3635 12.4847 78.2906 12.8029 78.1845 13.2403C78.0917 13.6646 77.9856 14.1352 77.8663 14.6522C77.747 15.156 77.6343 15.6332 77.5283 16.084C77.4222 16.5347 77.3427 16.8794 77.2897 17.118L76.4147 20.8763H73.233L70.1508 10.0189H73.0939L74.3466 14.8312C74.4394 15.1626 74.519 15.5603 74.5853 16.0243C74.6648 16.4883 74.7377 16.939 74.804 17.3765C74.8703 17.8007 74.9167 18.1388 74.9432 18.3907H75.0227C75.036 18.2051 75.0625 17.9598 75.1023 17.6549C75.142 17.3367 75.1884 17.0119 75.2415 16.6805C75.3078 16.3491 75.3608 16.0508 75.4006 15.7857C75.4536 15.5073 75.4933 15.3217 75.5199 15.2289L76.8522 10.0189H80.1134L81.386 15.2289C81.4391 15.4145 81.4987 15.7128 81.565 16.1237C81.6446 16.5347 81.7108 16.9523 81.7639 17.3765C81.8302 17.8007 81.8633 18.1388 81.8633 18.3907H81.9428C81.9693 18.1653 82.0157 17.8405 82.082 17.4163C82.1483 16.9788 82.2212 16.5214 82.3008 16.0442C82.3936 15.5669 82.4864 15.1626 82.5792 14.8312L83.8717 10.0189H86.775L83.653 20.8763H80.4315L79.5964 17.0782Z" fill="#0F1740"/>
<path d="M68.7533 20.8763H60.1827V19.1264L65.2137 12.2859H60.481V10.0189H68.5743V11.9478L63.6825 18.6094H68.7533V20.8763Z" fill="#0F1740"/>
<path d="M57.1483 18.7088C57.4797 18.7088 57.7979 18.6757 58.1028 18.6094C58.4077 18.5431 58.7126 18.4636 59.0175 18.3708V20.578C58.6993 20.7106 58.3016 20.8233 57.8244 20.9161C57.3604 21.0222 56.85 21.0752 56.2932 21.0752C55.6436 21.0752 55.0603 20.9691 54.5433 20.757C54.0395 20.5449 53.6352 20.1803 53.3303 19.6633C53.0386 19.133 52.8928 18.4039 52.8928 17.4759V12.2461H51.481V10.9933L53.1116 9.99904L53.9666 7.71222H55.8557V10.0189H58.8982V12.2461H55.8557V17.4759C55.8557 17.8869 55.975 18.1984 56.2137 18.4105C56.4523 18.6094 56.7638 18.7088 57.1483 18.7088Z" fill="#0F1740"/>
<path d="M50.0753 10.019V20.8764H47.1124V10.019H50.0753ZM48.6038 5.76349C49.0412 5.76349 49.4191 5.86954 49.7372 6.08166C50.0554 6.28051 50.2145 6.65833 50.2145 7.21512C50.2145 7.75865 50.0554 8.13647 49.7372 8.34858C49.4191 8.5607 49.0412 8.66675 48.6038 8.66675C48.153 8.66675 47.7686 8.5607 47.4504 8.34858C47.1455 8.13647 46.993 7.75865 46.993 7.21512C46.993 6.65833 47.1455 6.28051 47.4504 6.08166C47.7686 5.86954 48.153 5.76349 48.6038 5.76349Z" fill="#0F1740"/>
<path d="M44.6131 20.8764H41.6501V5.76349H44.6131V20.8764Z" fill="#0F1740"/>
<path d="M33.7382 6.67816C34.9976 6.67816 36.0515 6.79747 36.9 7.0361C37.7617 7.26147 38.4047 7.63929 38.8289 8.16956C39.2663 8.68658 39.4851 9.3892 39.4851 10.2774C39.4851 10.8077 39.3989 11.2916 39.2266 11.729C39.0542 12.1665 38.8024 12.5245 38.4709 12.8029C38.1528 13.0812 37.7617 13.2602 37.2977 13.3398V13.4392C37.7749 13.532 38.2058 13.6977 38.5902 13.9363C38.9747 14.1749 39.2796 14.5196 39.505 14.9704C39.7303 15.4211 39.843 16.0177 39.843 16.76C39.843 17.6217 39.6309 18.3641 39.2067 18.9872C38.7957 19.597 38.1992 20.0676 37.417 20.3991C36.6349 20.7172 35.7069 20.8763 34.6331 20.8763H29.3237V6.67816H33.7382ZM34.0763 12.3057C34.9512 12.3057 35.5544 12.1665 35.8858 11.8881C36.2305 11.6097 36.4029 11.2054 36.4029 10.6751C36.4029 10.1316 36.204 9.74051 35.8063 9.50188C35.4086 9.26326 34.7789 9.14395 33.9172 9.14395H32.3264V12.3057H34.0763ZM32.3264 14.692V18.3906H34.295C35.1965 18.3906 35.8262 18.2183 36.1841 17.8736C36.5421 17.5157 36.721 17.0451 36.721 16.4618C36.721 16.1038 36.6415 15.7923 36.4824 15.5271C36.3366 15.262 36.0781 15.0565 35.7069 14.9107C35.3357 14.7649 34.8319 14.692 34.1956 14.692H32.3264Z" fill="#0F1740"/>
</svg>
